<svg xmlns="http://www.w3.org/2000/svg" viewBox="0 0 800 520" role="img" aria-label="Circuito parallelo, generatore di tensione"><rect width="800" height="520" rx="12" fill="#ffffff"/><g font-family="system-ui, sans-serif" font-size="22"><path d="M100 195V110H275 M100 265V385H500" stroke="#1e2c3d" stroke-width="3" fill="none"/><circle cx="100" cy="230" r="35" fill="none" stroke="#1e2c3d" stroke-width="3"/><text x="100" y="219" fill="#1e2c3d" text-anchor="middle">+</text><text x="100" y="255" fill="#1e2c3d" text-anchor="middle">−</text><text x="35" y="178" fill="#1e2c3d" text-anchor="middle">+</text><text x="35" y="289" fill="#1e2c3d" text-anchor="middle">−</text><text x="24" y="430" fill="#1e2c3d" text-anchor="start">v<tspan baseline-shift="sub" font-size="70%">in</tspan> = 12 V</text><path d="M146 81h48m-8 -6l8 6 -8 6" stroke="#1e2c3d" stroke-width="3" fill="none"/><text x="24" y="465" fill="#1e2c3d" text-anchor="start">I<tspan baseline-shift="sub" font-size="70%">tot</tspan> = 18 mA</text><path d="M275 110H540V200 M540 290V385H500 M330 110V200 M330 290V385" stroke="#1e2c3d" stroke-width="3" fill="none"/><rect x="316" y="200" width="28" height="90" fill="none" stroke="#0e7a86" stroke-width="3"/><circle cx="330" cy="110" r="5" fill="#1e2c3d"/><circle cx="330" cy="385" r="5" fill="#1e2c3d"/><text x="357" y="202" fill="#0e7a86" text-anchor="start">R<tspan baseline-shift="sub" font-size="70%">1</tspan> = 1 kΩ</text><text x="357" y="243" fill="#0e7a86" text-anchor="start">V<tspan baseline-shift="sub" font-size="70%">1</tspan> = 12 V</text><text x="357" y="284" fill="#0e7a86" text-anchor="start">I<tspan baseline-shift="sub" font-size="70%">1</tspan> = 12 mA</text><text x="298" y="192" fill="#0e7a86" text-anchor="start">+</text><text x="298" y="310" fill="#0e7a86" text-anchor="start">−</text><path d="M368 309v40m-6 -8l6 8 6 -8" stroke="#0e7a86" stroke-width="3" fill="none"/><rect x="526" y="200" width="28" height="90" fill="none" stroke="#a8402c" stroke-width="3"/><circle cx="540" cy="110" r="5" fill="#1e2c3d"/><circle cx="540" cy="385" r="5" fill="#1e2c3d"/><text x="567" y="202" fill="#a8402c" text-anchor="start">R<tspan baseline-shift="sub" font-size="70%">2</tspan> = 2 kΩ</text><text x="567" y="243" fill="#a8402c" text-anchor="start">V<tspan baseline-shift="sub" font-size="70%">2</tspan> = 12 V</text><text x="567" y="284" fill="#a8402c" text-anchor="start">I<tspan baseline-shift="sub" font-size="70%">2</tspan> = 6 mA</text><text x="508" y="192" fill="#a8402c" text-anchor="start">+</text><text x="508" y="310" fill="#a8402c" text-anchor="start">−</text><path d="M578 309v40m-6 -8l6 8 6 -8" stroke="#a8402c" stroke-width="3" fill="none"/><text x="780" y="430" fill="#1e2c3d" text-anchor="end">R<tspan baseline-shift="sub" font-size="70%">eq</tspan> = 0,667 kΩ</text><text x="780" y="465" fill="#1e2c3d" text-anchor="end">I<tspan baseline-shift="sub" font-size="70%">1</tspan> + I<tspan baseline-shift="sub" font-size="70%">2</tspan> = 18 mA</text></g></svg>