<svg xmlns="http://www.w3.org/2000/svg" viewBox="0 0 900 385" role="img" aria-label="Due partitori collegati in cascata"><style>.wires{fill:none;stroke:currentColor;stroke-width:2.3;stroke-linecap:round;stroke-linejoin:round}text{fill:currentColor;stroke:none;font:19px sans-serif}.junction{fill:currentColor}</style><g class="wires"><path d="M65 85V157 M65 213V320"/><circle cx="65" cy="185" r="28"/><text x="65" y="179" class="" text-anchor="middle">+</text><text x="65" y="203" class="" text-anchor="middle">−</text><text x="20" y="246" class="" text-anchor="start">v<tspan baseline-shift="sub" font-size="13">in</tspan></text><text x="20" y="270" class="" text-anchor="start">5 V</text><path d="M65 85H160 M270 85H450 M560 85H710V135 M710 245V320H65 M370 85V135 M370 245V320"/><path d="M160 85h25 m60 0h25"/><rect x="185" y="74" width="60" height="22"/><text x="215" y="61" class="" text-anchor="middle">R1 · 220 Ω</text><path d="M450 85h25 m60 0h25"/><rect x="475" y="74" width="60" height="22"/><text x="505" y="61" class="" text-anchor="middle">R3 · 22 kΩ</text><path d="M370 135v25 m0 60v25"/><rect x="359" y="160" width="22" height="60"/><text x="392" y="190" class="" text-anchor="start">R2</text><text x="392" y="213" class="" text-anchor="start">220 Ω</text><path d="M710 135v25 m0 60v25"/><rect x="699" y="160" width="22" height="60"/><text x="732" y="190" class="" text-anchor="start">R4</text><text x="732" y="213" class="" text-anchor="start">22 kΩ</text><circle class="junction" cx="370" cy="85" r="4"/><circle class="junction" cx="370" cy="320" r="4"/><circle class="junction" cx="710" cy="85" r="4"/><circle class="junction" cx="710" cy="320" r="4"/><text x="370" y="40" class="node" text-anchor="middle">v<tspan baseline-shift="sub" font-size="13">1</tspan></text><text x="735" y="65" class="node" text-anchor="start">v<tspan baseline-shift="sub" font-size="13">out</tspan></text><path d="M145 145l100 0"/><path d="M238 140l7 5 -7 5"/><text x="195" y="133" class="current" text-anchor="middle">I<tspan baseline-shift="sub" font-size="13">1</tspan></text><path d="M322 167l0 54"/><path d="M317 214l5 7 5 -7"/><text x="312" y="194" class="current" text-anchor="end">I<tspan baseline-shift="sub" font-size="13">2</tspan></text><path d="M450 145l100 0"/><path d="M543 140l7 5 -7 5"/><text x="500" y="133" class="current" text-anchor="middle">I<tspan baseline-shift="sub" font-size="13">3</tspan></text><path d="M855 170l0 55"/><path d="M850 218l5 7 5 -7"/><text x="845" y="197.5" class="current" text-anchor="end">I<tspan baseline-shift="sub" font-size="13">4</tspan></text><text x="735" y="108" class="" text-anchor="start">+</text><text x="735" y="310" class="" text-anchor="start">−</text><text x="390" y="108" class="" text-anchor="start">+</text><text x="390" y="310" class="" text-anchor="start">−</text><path d="M140 320v15 m-16 0h32 m-25 7h18 m-13 7h8"/><text x="485" y="365" class="" text-anchor="middle">Riferimento: 0 V</text></g></svg>