<svg xmlns="http://www.w3.org/2000/svg" viewBox="0 0 440 385" role="img" aria-label="Secondo partitore isolato"><style>.wires{fill:none;stroke:currentColor;stroke-width:2.3;stroke-linecap:round;stroke-linejoin:round}text{fill:currentColor;stroke:none;font:19px sans-serif}.junction{fill:currentColor}</style><g class="wires"><path d="M65 85V157 M65 213V320"/><circle cx="65" cy="185" r="28"/><text x="65" y="179" class="" text-anchor="middle">+</text><text x="65" y="203" class="" text-anchor="middle">−</text><text x="20" y="246" class="" text-anchor="start">v<tspan baseline-shift="sub" font-size="13">2</tspan></text><text x="20" y="270" class="" text-anchor="start">5 V</text><path d="M65 85H230V90 M230 200V205 M230 315V320H65"/><path d="M230 90v25 m0 60v25"/><rect x="219" y="115" width="22" height="60"/><text x="252" y="145" class="" text-anchor="start">R3</text><text x="252" y="168" class="" text-anchor="start">22 kΩ</text><path d="M230 205v25 m0 60v25"/><rect x="219" y="230" width="22" height="60"/><text x="252" y="260" class="" text-anchor="start">R4</text><text x="252" y="283" class="" text-anchor="start">22 kΩ</text><circle class="junction" cx="230" cy="200" r="4"/><path d="M230 200H315"/><text x="315" y="182" class="node" text-anchor="start">v<tspan baseline-shift="sub" font-size="13">out</tspan></text><text x="315" y="207" class="node" text-anchor="start"></text><text x="200" y="215" class="" text-anchor="start">+</text><text x="200" y="317" class="" text-anchor="start">−</text><path d="M104 52l80 0"/><path d="M177 47l7 5 -7 5"/><text x="144" y="40" class="current" text-anchor="middle">I</text><path d="M140 320v15 m-16 0h32 m-25 7h18 m-13 7h8"/><text x="280" y="365" class="" text-anchor="middle">Riferimento: 0 V</text></g></svg>