<svg xmlns="http://www.w3.org/2000/svg" viewBox="0 0 720 565" role="img"><title>Avviamento diretto: circuito di potenza</title><rect width="720" height="565" rx="12" fill="white"/><g fill="#16324f" font-family="Arial,sans-serif"><text x="24" y="30" font-size="22" text-anchor="start">Avviamento diretto: circuito di potenza</text><text x="180" y="70" font-size="18" text-anchor="middle">L1</text><path d="M180 80V110 M180 160V200 M180 200l12 25 M180 255V290 M180 340V375" fill="none" stroke="#16324f" stroke-width="2.4"/><rect x="164" y="110" width="32" height="50" fill="#eff8f8" stroke="#007f86" stroke-width="2"/><text x="180" y="141" font-size="18" text-anchor="middle">F</text><rect x="164" y="290" width="32" height="50" fill="#eff8f8" stroke="#007f86" stroke-width="2"/><text x="180" y="321" font-size="18" text-anchor="middle">θ</text><text x="310" y="70" font-size="18" text-anchor="middle">L2</text><path d="M310 80V110 M310 160V200 M310 200l12 25 M310 255V290 M310 340V375" fill="none" stroke="#16324f" stroke-width="2.4"/><rect x="294" y="110" width="32" height="50" fill="#eff8f8" stroke="#007f86" stroke-width="2"/><text x="310" y="141" font-size="18" text-anchor="middle">F</text><rect x="294" y="290" width="32" height="50" fill="#eff8f8" stroke="#007f86" stroke-width="2"/><text x="310" y="321" font-size="18" text-anchor="middle">θ</text><text x="440" y="70" font-size="18" text-anchor="middle">L3</text><path d="M440 80V110 M440 160V200 M440 200l12 25 M440 255V290 M440 340V375" fill="none" stroke="#16324f" stroke-width="2.4"/><rect x="424" y="110" width="32" height="50" fill="#eff8f8" stroke="#007f86" stroke-width="2"/><text x="440" y="141" font-size="18" text-anchor="middle">F</text><rect x="424" y="290" width="32" height="50" fill="#eff8f8" stroke="#007f86" stroke-width="2"/><text x="440" y="321" font-size="18" text-anchor="middle">θ</text><text x="510" y="140" font-size="18" text-anchor="start">QF: protezione</text><text x="510" y="165" font-size="18" text-anchor="start">da cortocircuito</text><text x="510" y="240" font-size="18" text-anchor="start">K1: contatti</text><text x="510" y="320" font-size="18" text-anchor="start">F1: termico</text><path d="M180 375V440H275 M310 375V405 M440 375V440H345" fill="none" stroke="#16324f" stroke-width="2.4"/><circle cx="310" cy="440" r="35" fill="white" stroke="#16324f" stroke-width="2"/><text x="310" y="447" font-size="19" text-anchor="middle">M 3~</text><text x="24" y="505" font-size="18" text-anchor="start">K1 collega le tre fasi; il contatto F1 NC agisce sul comando.</text><text x="24" y="537" font-size="18" text-anchor="start">Schema didattico: PE al telaio e scelta delle protezioni da progetto.</text></g></svg>