<svg xmlns="http://www.w3.org/2000/svg" viewBox="0 0 720 445" role="img"><title>Raddrizzatore a una semionda (senza filtro)</title><rect width="720" height="445" rx="12" fill="white"/><g fill="#16324f" font-family="Arial,sans-serif"><text x="24" y="30" font-size="22" text-anchor="start">Raddrizzatore a una semionda (senza filtro)</text><circle cx="130" cy="220" r="30" fill="white" stroke="#16324f" stroke-width="2"/><text x="130" y="227" font-size="26" text-anchor="middle">~</text><path d="M130 190V85H420V115 M130 250V365H420V325 M420 195V225" fill="none" stroke="#16324f" stroke-width="2.4"/><path d="M420 115v20 M420 175v20" fill="none" stroke="#16324f" stroke-width="2.4"/><path d="M402 135H438L420 175Z M398 175H442" fill="white" stroke="#16324f" stroke-width="2.4"/><text x="450" y="160" font-size="18" text-anchor="start">D</text><path d="M420 225v20 M420 305v20" fill="none" stroke="#16324f" stroke-width="2.4"/><rect x="410" y="245" width="20" height="60" fill="#eff8f8" stroke="#007f86" stroke-width="2"/><text x="420" y="281" font-size="18" text-anchor="middle"></text><text x="440" y="280" font-size="18" text-anchor="start">R carico</text><text x="40" y="280" font-size="18" text-anchor="start">u(t) alternata</text><text x="455" y="220" font-size="18" text-anchor="start">+ vout</text><text x="455" y="350" font-size="18" text-anchor="start">−</text><text x="24" y="415" font-size="18" text-anchor="start">Semionda positiva: D conduce. Negativa: D blocca nel modello ideale.</text></g></svg>