<svg xmlns="http://www.w3.org/2000/svg" viewBox="0 0 720 455" role="img"><title>Riferimento Zener con resistore di limitazione</title><rect width="720" height="455" rx="12" fill="white"/><g fill="#16324f" font-family="Arial,sans-serif"><text x="24" y="30" font-size="22" text-anchor="start">Riferimento Zener con resistore di limitazione</text><path d="M170 85h20 M250 85h20" fill="none" stroke="#16324f" stroke-width="2.4"/><rect x="190" y="75" width="60" height="20" fill="#eff8f8" stroke="#007f86" stroke-width="2"/><text x="220" y="91" font-size="18" text-anchor="middle"></text><text x="220" y="62" font-size="17" text-anchor="middle">RS</text><path d="M80 85H170 M270 85H540V200 M350 85V170 M350 250V350 M540 300V350H80" fill="none" stroke="#16324f" stroke-width="2.4"/><path d="M540 200v20 M540 280v20" fill="none" stroke="#16324f" stroke-width="2.4"/><rect x="530" y="220" width="20" height="60" fill="#eff8f8" stroke="#007f86" stroke-width="2"/><text x="540" y="256" font-size="18" text-anchor="middle"></text><text x="560" y="255" font-size="18" text-anchor="start">R carico</text><path d="M350 170v20 M350 230v20" fill="none" stroke="#16324f" stroke-width="2.4"/><path d="M332 230H368L350 190Z M328 190H372" fill="white" stroke="#16324f" stroke-width="2.4"/><text x="380" y="215" font-size="18" text-anchor="start">Zener</text><path d="M328 190v-8 M372 190v8" fill="none" stroke="#16324f" stroke-width="2.4"/><circle cx="350" cy="85" r="4" fill="#16324f"/><circle cx="350" cy="350" r="4" fill="#16324f"/><text x="40" y="70" font-size="18" text-anchor="start">+Vin</text><text x="40" y="380" font-size="18" text-anchor="start">0 V</text><text x="385" y="150" font-size="18" text-anchor="start">K</text><text x="385" y="285" font-size="18" text-anchor="start">A</text><text x="565" y="155" font-size="18" text-anchor="start">Vout</text><text x="24" y="425" font-size="18" text-anchor="start">RS limita la corrente; Vout ≈ VZ solo nel corretto intervallo di funzionamento.</text></g></svg>